<?xml version="1.0" standalone="no"?>
<!DOCTYPE svg PUBLIC "-//W3C//DTD SVG 20010904//EN"
 "http://www.w3.org/TR/2001/REC-SVG-20010904/DTD/svg10.dtd">
<svg version="1.0" xmlns="http://www.w3.org/2000/svg"
 width="500.000000pt" height="500.000000pt" viewBox="0 0 500.000000 500.000000"
 preserveAspectRatio="xMidYMid meet">

<g transform="translate(0.000000,500.000000) scale(0.100000,-0.100000)"
fill="#000000" stroke="none">
<path d="M0 2500 l0 -2500 2500 0 2500 0 0 2500 0 2500 -2500 0 -2500 0 0
-2500z m1719 1935 c16 -8 34 -28 41 -45 18 -44 8 -126 -19 -153 -21 -22 -26
-22 -484 -27 l-462 -5 -5 -462 c-5 -458 -5 -463 -27 -484 -27 -27 -109 -37
-153 -19 -61 25 -60 13 -60 640 l0 570 570 0 c480 0 575 -2 599 -15z m2731
-555 c0 -627 1 -615 -60 -640 -44 -18 -126 -8 -153 19 -22 21 -22 26 -27 484
l-5 462 -465 5 c-256 3 -466 7 -468 8 -1 1 -11 17 -22 35 -23 37 -26 110 -6
146 28 51 20 50 634 51 l572 0 0 -570z m-2095 -1425 l0 -880 -125 -3 c-157 -4
-206 3 -236 33 l-24 24 0 824 c0 775 1 826 18 847 25 31 69 38 227 37 l140 -2
0 -880z m730 744 c-1 -151 -11 -182 -63 -196 -15 -5 -148 -8 -297 -8 l-270 0
-3 160 c-1 87 0 165 2 172 4 11 68 13 318 11 l313 -3 0 -136z m-125 -676 c0
-60 -3 -118 -6 -130 -10 -36 -63 -44 -291 -41 l-208 3 -3 138 -3 137 256 0
255 0 0 -107z m148 -728 c3 -133 -7 -188 -41 -207 -16 -10 -97 -13 -317 -13
l-295 0 -3 160 c-1 87 0 165 2 172 4 11 70 13 328 11 l323 -3 3 -120z m-2345
-53 c22 -22 22 -24 27 -485 l5 -462 462 -5 c458 -5 463 -5 484 -27 27 -27 37
-109 19 -153 -25 -61 -13 -60 -640 -60 l-570 0 0 573 c1 613 0 604 51 634 37
21 134 12 162 -15z m3636 14 c15 -8 32 -26 39 -41 9 -19 12 -175 12 -595 l0
-570 -570 0 c-627 0 -615 -1 -640 60 -18 44 -8 126 19 153 21 22 26 22 484 27
l462 5 5 465 c3 256 7 466 8 468 1 1 17 11 35 22 38 24 106 26 146 6z"/>
</g>
</svg>
