<svg xmlns="http://www.w3.org/2000/svg" width="852" height="150" fill="none" viewBox="0 0 852 150">
  <rect width="150" height="150" fill="#000" rx="12"/>
  <path fill="#fff" d="M25 25h28.75a2.5 2.5 0 0 1 2.5 2.5v1.25a2.5 2.5 0 0 1-2.5 2.5H25V25Zm68.75 2.5a2.5 2.5 0 0 1 2.5-2.5H125v6.25H96.25a2.5 2.5 0 0 1-2.5-2.5V27.5Z"/>
  <path fill="#fff" d="M31.25 25v28.75a2.5 2.5 0 0 1-2.5 2.5H27.5a2.5 2.5 0 0 1-2.5-2.5V25h6.25Zm-2.5 68.75a2.5 2.5 0 0 1 2.5 2.5V125H25V96.25a2.5 2.5 0 0 1 2.5-2.5h1.25ZM125 25v28.75a2.5 2.5 0 0 1-2.5 2.5h-1.25a2.5 2.5 0 0 1-2.5-2.5V25H125Zm-2.5 68.75a2.5 2.5 0 0 1 2.5 2.5V125h-6.25V96.25a2.5 2.5 0 0 1 2.5-2.5h1.25Z"/>
  <path fill="#fff" d="M25 118.75h28.75a2.5 2.5 0 0 1 2.5 2.5v1.25a2.5 2.5 0 0 1-2.5 2.5H25v-6.25Zm68.75 2.5a2.5 2.5 0 0 1 2.5-2.5H125V125H96.25a2.5 2.5 0 0 1-2.5-2.5v-1.25Zm-22.437-22.5H64.75c-1.417 0-2.354-.23-2.813-.688-.416-.458-.624-1.416-.624-2.874V57.124c0-1.458.208-2.417.624-2.875.459-.458 1.396-.688 2.813-.688h6.563V98.75ZM90.624 90v5.313c0 1.416-.23 2.354-.688 2.812-.458.417-1.416.625-2.874.625h-13.25V90h16.812Zm-3.75-18.438v3.75c0 1.5-.146 2.459-.438 2.876-.291.374-1.124.562-2.5.562H73.814v-7.188h13.062Zm3.125-18v5.313c0 1.417-.23 2.354-.688 2.813-.458.416-1.416.624-2.874.624H73.811v-8.75H90Z"/>
  <path fill="#000" d="M192.44 116V29.6h15.6V116h-15.6Zm7.44 0v-12.36h54.72V116h-54.72Zm0-38.4V65.48h50.52V77.6h-50.52Zm0-35.64V29.6h53.4v12.36h-53.4ZM274.026 116V29.6h19.32l42.12 75.12-4.44 1.08V29.6h15.12V116h-19.32l-42.12-75.12 4.44-1.08V116h-15.12Zm102.433 0v-12.48h22.32c6.56 0 12.16-1.32 16.8-3.96 4.64-2.64 8.16-6.32 10.56-11.04 2.48-4.72 3.72-10.12 3.72-16.2 0-6-1.24-11.28-3.72-15.84-2.4-4.56-5.92-8.08-10.56-10.56-4.56-2.56-10.16-3.84-16.8-3.84h-22.08V29.6h22.08c9.44 0 17.68 1.76 24.72 5.28 7.04 3.52 12.48 8.52 16.32 15 3.92 6.4 5.88 13.96 5.88 22.68 0 8.72-1.96 16.36-5.88 22.92-3.92 6.48-9.4 11.52-16.44 15.12-6.96 3.6-15.12 5.4-24.48 5.4h-22.44Zm-9.48 0V29.6h15.6V116h-15.6Zm96.586 0V29.6h38.76c6.32 0 11.72 1.08 16.2 3.24 4.56 2.16 8.04 5.2 10.44 9.12 2.48 3.92 3.72 8.56 3.72 13.92 0 5.28-1.24 9.92-3.72 13.92-2.48 4-5.96 7.12-10.44 9.36-4.48 2.16-9.88 3.24-16.2 3.24h-26.64V70.16h25.92c4.96 0 8.76-1.28 11.4-3.84 2.72-2.56 4.08-6.04 4.08-10.44 0-4.32-1.36-7.72-4.08-10.2-2.64-2.48-6.44-3.72-11.4-3.72h-22.44V116h-15.6Zm125.653 1.2c-6.24 0-12-1.08-17.28-3.24-5.28-2.16-9.88-5.24-13.8-9.24-3.84-4-6.84-8.72-9-14.16-2.08-5.52-3.12-11.56-3.12-18.12 0-8.72 1.84-16.36 5.52-22.92 3.68-6.64 8.76-11.8 15.24-15.48 6.56-3.76 14-5.64 22.32-5.64 8.48 0 15.96 1.88 22.44 5.64 6.56 3.68 11.68 8.84 15.36 15.48 3.68 6.64 5.52 14.32 5.52 23.04 0 6.56-1.08 12.56-3.24 18-2.08 5.44-5.08 10.16-9 14.16-3.84 4-8.4 7.08-13.68 9.24-5.28 2.16-11.04 3.24-17.28 3.24Zm-.12-12.72c5.44 0 10.2-1.36 14.28-4.08 4.16-2.72 7.4-6.48 9.72-11.28 2.32-4.88 3.48-10.48 3.48-16.8 0-6.24-1.16-11.68-3.48-16.32-2.24-4.72-5.44-8.36-9.6-10.92-4.08-2.64-8.88-3.96-14.4-3.96-5.44 0-10.24 1.32-14.4 3.96-4.08 2.56-7.24 6.16-9.48 10.8-2.24 4.64-3.36 10.12-3.36 16.44 0 6.4 1.12 12 3.36 16.8 2.32 4.8 5.52 8.56 9.6 11.28 4.16 2.72 8.92 4.08 14.28 4.08ZM650.292 116V29.6h15.6V116h-15.6Zm36.468 0V29.6h19.32l42.12 75.12-4.44 1.08V29.6h15.12V116h-19.32l-42.12-75.12 4.44-1.08V116h-15.12Zm117.553 0V41.96h-28.68V29.6h72.96v12.36h-28.68V116h-15.6Z"/>
</svg>
